<svg xmlns="http://www.w3.org/2000/svg" viewBox="0 0 96 96" id="Eye"><switch><g fill="#ffffff" class="color000000 svgShape"><path d="M48 12C16 12 0 48.166 0 48.166S16 84 48 84s48-36 48-36-16-36-48-36zm0 64C26.854 76 13.503 56.118 9.003 48.148 13.5 40.102 26.854 20 48 20c21.15 0 34.502 19.998 38.998 28C82.494 56.016 69.145 76 48 76zm0-44c-8.836 0-16 7.164-16 16 0 8.837 7.164 16 16 16 8.837 0 16-7.163 16-16 0-8.836-7.163-16-16-16zm0 24c-4.411 0-8-3.589-8-8s3.589-8 8-8 8 3.589 8 8-3.589 8-8 8z" fill="#ffffff" class="color000000 svgShape"></path><path d="M48 12C16 12 0 48.166 0 48.166S16 84 48 84s48-36 48-36-16-36-48-36zm0 64C26.854 76 13.503 56.118 9.003 48.148 13.5 40.102 26.854 20 48 20c21.15 0 34.502 19.998 38.998 28C82.494 56.016 69.145 76 48 76zm0-44c-8.836 0-16 7.164-16 16 0 8.837 7.164 16 16 16 8.837 0 16-7.163 16-16 0-8.836-7.163-16-16-16zm0 24c-4.411 0-8-3.589-8-8s3.589-8 8-8 8 3.589 8 8-3.589 8-8 8z" fill="#ffffff" class="color000000 svgShape"></path></g></switch></svg>